{"title":"This Week - S13E18 - 2015.02.05 - 468p x264","uid":11709711,"size":505331480,"categoryP":"video","categoryS":"tv_shows","magnet":"?xt=urn:btih:736348a80ded2c6ba07f2bc9fbd3eb39bf668231&amp;dn=This+Week+-+S13E18+-+2015.02.05+-+468p+x264&amp;tr=udp%3A%2F%2Ftracker.openbittorrent.com%3A80&amp;tr=udp%3A%2F%2Fopen.demonii.com%3A1337&amp;tr=udp%3A%2F%2Ftracker.coppersurfer.tk%3A6969&amp;tr=udp%3A%2F%2Fexodus.desync.com%3A6969","seeders":0,"leechers":1,"uploader":"rugbybill","files":3,"time":1424277490,"description":"POLITICAL: This Week\nOn: BBC 1 HD    \nDate: Thursday 5th February 2015 \nTime: 23:45 to 00:30 \n\nAndrew Neil presents a round-up of the week with Alan Johnson, Michael Portillo and Miranda Green. They are joined by comedian and Labour supporter Matt Forde, who looks at Ed Miliband and the party's links to business. There is a film rounding up the week from Anne McElvoy, and former Blue Peter presenter Helen Skelton joins the panel to look at 'stuffiness' in the week a TV documentary showed Parliament from behind the scenes. Crack open the Blue Nun and prepare to watch public service broadcasting at its best.\n\nCredits\n \nPresenter\tAndrew Neil\nPanellist\tMichael Portillo\nPanellist\tAlan Johnson\nPanellist\tMiranda Green\nInterviewed Guest\tMatt Forde\nInterviewed Guest\tHelen Skelton\nReporter\tAnne McElvoy\nEditor\tVicky Flind\nDirector\tClaire Bellis\nAssistant Editor\tRichard Garvin\nProducer\tAndrew Bradley\nProducer\tJames Franklin\nProducer\tArryn Moy\nAssistant Producer\tEd Baranski\nProduction Manager\tPaula Prynn\nExecutive Producer\tRobbie Gibb\nExecutive Producer\tSamir Shah\nProduction Company\tJuniper TV\n\n\nGeneral\nComplete name                            : 2015.02.05.This.Week.webrip.468p.x264.mp4\nFormat                                   : MPEG-4\nFormat profile                           : Base Media\nCodec ID                                 : isom\nFile size                                : 482 MiB\nDuration                                 : 44mn 49s\nOverall bit rate mode                    : Constant\nOverall bit rate                         : 1 503 Kbps\n\nVideo\nID                                       : 1\nFormat                                   : AVC\nFormat/Info                              : Advanced Video Codec\nFormat profile                           : &lt;a class=&quot;__cf_email__&quot; href=&quot;/cdn-cgi/l/email-protection&quot; data-cfemail=&quot;3d705c54537d710e130c&quot;&gt;[email&amp;#160;protected]&lt;/a&gt;&lt;script cf-hash='f9e31' type=&quot;text/javascript&quot;&gt;\n/* &lt;![CDATA[ */!function(){try{var t=&quot;currentScript&quot;in document?document.currentScript:function(){for(var t=document.getElementsByTagName(&quot;script&quot;),e=t.length;e--;)if(t[e].getAttribute(&quot;cf-hash&quot;))return t[e]}();if(t&amp;&amp;t.previousSibling){var e,r,n,i,c=t.previousSibling,a=c.getAttribute(&quot;data-cfemail&quot;);if(a){for(e=&quot;&quot;,r=parseInt(a.substr(0,2),16),n=2;a.length-n;n+=2)i=parseInt(a.substr(n,2),16)^r,e+=String.fromCharCode(i);e=document.createTextNode(e),c.parentNode.replaceChild(e,c)}}}catch(u){}}();/* ]]&gt; */&lt;/script&gt;\nFormat settings, CABAC                   : Yes\nFormat settings, ReFrames                : 2 frames\nCodec ID                                 : avc1\nCodec ID/Info                            : Advanced Video Coding\nDuration                                 : 44mn 49s\nBit rate mode                            : Constant\nBit rate                                 : 1 404 Kbps\nWidth                                    : 832 pixels\nHeight                                   : 468 pixels\nDisplay aspect ratio                     : 16:9\nFrame rate mode                          : Constant\nFrame rate                               : 25.000 fps\nColor space                              : YUV\nChroma subsampling                       : 4:2:0\nBit depth                                : 8 bits\nScan type                                : Progressive\nBits/(Pixel*Frame)                       : 0.144\nStream size                              : 450 MiB (93%)\n\nAudio\nID                                       : 2\nFormat                                   : AAC\nFormat/Info                              : Advanced Audio Codec\nFormat profile                           : LC\nCodec ID                                 : 40\nDuration                                 : 44mn 49s\nBit rate mode                            : Constant\nBit rate                                 : 93.5 Kbps\nChannel(s)                               : 2 channels\nChannel positions                        : Front: L R\nSampling rate                            : 48.0 KHz\nCompression mode                         : Lossy\nStream size                              : 30.0 MiB (6%)","torrent":{"xt":"urn:btih:736348a80ded2c6ba07f2bc9fbd3eb39bf668231","amp;dn":"This+Week+-+S13E18+-+2015.02.05+-+468p+x264","amp;tr":["udp%3A%2F%2Ftracker.openbittorrent.com%3A80","udp%3A%2F%2Fopen.demonii.com%3A1337","udp%3A%2F%2Ftracker.coppersurfer.tk%3A6969","udp%3A%2F%2Fexodus.desync.com%3A6969"],"infoHash":"736348a80ded2c6ba07f2bc9fbd3eb39bf668231","infoHashBuffer":{"type":"Buffer","data":[115,99,72,168,13,237,44,107,160,127,43,201,251,211,235,57,191,102,130,49]},"announce":[],"urlList":[]}}